<svg xmlns="http://www.w3.org/2000/svg" viewBox="0 0 600 300" role="img" aria-labelledby="title desc">
  <title id="title">Hypeboyo Studio pixel-art banner</title>
  <desc id="desc">A pink pixel mascot and three product icons in a compact light studio banner.</desc>
  <rect width="600" height="300" fill="#fff8f1"/>
  <rect x="24" y="24" width="552" height="252" rx="18" fill="#ffffff" stroke="#e2e8f0" stroke-width="4"/>
  <rect x="24" y="24" width="552" height="16" rx="8" fill="#f1f5f9"/>
  <rect x="42" y="30" width="6" height="6" fill="#ff7a8a"/><rect x="56" y="30" width="6" height="6" fill="#facc15"/><rect x="70" y="30" width="6" height="6" fill="#4ade80"/>
  <text x="52" y="100" fill="#d73f5d" font-family="ui-monospace, SFMono-Regular, Consolas, monospace" font-size="42" font-weight="800" letter-spacing="2">HYPEBOYO</text>
  <text x="52" y="139" fill="#0f172a" font-family="ui-monospace, SFMono-Regular, Consolas, monospace" font-size="27" font-weight="700">PRODUCT STUDIO</text>
  <g transform="translate(390 64)">
    <rect x="34" y="48" width="106" height="78" rx="8" fill="#e2e8f0" stroke="#94a3b8" stroke-width="4"/><rect x="44" y="58" width="86" height="54" fill="#f8fafc"/><path d="M66 82h42v8H66zm8-14h26v8H74zm8 28h12v8H82z" fill="#0891b2"/>
    <rect x="52" width="72" height="58" fill="#ff7a8a"/><rect x="38" y="16" width="18" height="30" fill="#ff7a8a"/><rect x="120" y="16" width="18" height="30" fill="#ff7a8a"/><rect x="66" y="18" width="9" height="13" fill="#0f172a"/><rect x="101" y="18" width="9" height="13" fill="#0f172a"/><rect x="78" y="44" width="22" height="6" fill="#0f172a"/>
    <path d="M18 128h138l16 14H2z" fill="#94a3b8"/>
  </g>
  <g transform="translate(52 184)">
    <rect width="64" height="64" rx="12" fill="#ff7a8a"/><text x="9" y="39" fill="#0f172a" font-family="ui-monospace, SFMono-Regular, Consolas, monospace" font-size="18" font-weight="800">0924</text>
    <rect x="82" width="64" height="64" rx="12" fill="#67e8f9"/><rect x="96" y="14" width="16" height="16" fill="#0f172a"/><rect x="116" y="14" width="16" height="16" fill="#ff7a8a"/><rect x="96" y="34" width="16" height="16" fill="#facc15"/><rect x="116" y="34" width="16" height="16" fill="#4ade80"/>
    <rect x="164" width="64" height="64" rx="32" fill="#facc15"/><path d="M180 18h32v22h-17l-11 10 3-10h-7z" fill="#0f172a"/>
  </g>
</svg>
