<svg xmlns="http://www.w3.org/2000/svg" viewBox="0 0 1200 360" role="img" aria-labelledby="title desc">
  <title id="title">Hypeboyo Studio pixel-art workspace</title>
  <desc id="desc">A pink pixel mascot building small AI products at a desk in Seoul, with product tiles for Beep Get, DesignLens, and KakaoTalk Link Analyzer.</desc>
  <rect width="1200" height="360" fill="#0b1020"/>
  <path d="M0 292h1200v68H0z" fill="#111a31"/>
  <path d="M0 292h1200v8H0z" fill="#67e8f9" opacity=".55"/>
  <g fill="#fff7ed" opacity=".8">
    <rect x="42" y="38" width="6" height="6"/><rect x="156" y="76" width="4" height="4"/>
    <rect x="286" y="40" width="5" height="5"/><rect x="1030" y="42" width="6" height="6"/>
    <rect x="1134" y="86" width="4" height="4"/><rect x="934" y="108" width="4" height="4"/>
  </g>
  <g transform="translate(54 54)">
    <rect x="0" y="0" width="484" height="172" rx="12" fill="#121b33" stroke="#334155" stroke-width="3"/>
    <rect x="0" y="0" width="484" height="14" rx="7" fill="#1e293b"/>
    <rect x="18" y="5" width="5" height="5" fill="#ff7a8a"/><rect x="30" y="5" width="5" height="5" fill="#facc15"/><rect x="42" y="5" width="5" height="5" fill="#4ade80"/>
    <text x="26" y="64" fill="#ff7a8a" font-family="ui-monospace, SFMono-Regular, Consolas, monospace" font-size="36" font-weight="800" letter-spacing="2">HYPEBOYO</text>
    <text x="26" y="102" fill="#fff7ed" font-family="ui-monospace, SFMono-Regular, Consolas, monospace" font-size="28" font-weight="700">PRODUCT STUDIO</text>
    <text x="27" y="139" fill="#67e8f9" font-family="ui-monospace, SFMono-Regular, Consolas, monospace" font-size="15" letter-spacing="1">AI PRODUCT BUILDER // SEOUL</text>
  </g>
  <g transform="translate(610 58)">
    <rect x="48" y="65" width="168" height="108" rx="8" fill="#1e293b" stroke="#475569" stroke-width="4"/>
    <rect x="60" y="77" width="144" height="78" fill="#0f172a"/>
    <path d="M104 113h56v8h-56zm8-16h40v8h-40zm8 32h24v8h-24z" fill="#67e8f9"/>
    <path d="M28 176h212l20 18H8z" fill="#334155"/><rect x="0" y="194" width="268" height="10" fill="#475569"/>
    <g transform="translate(0 0)">
      <rect x="76" y="12" width="104" height="72" fill="#ff7a8a"/>
      <rect x="60" y="28" width="24" height="40" fill="#ff7a8a"/><rect x="172" y="28" width="24" height="40" fill="#ff7a8a"/>
      <rect x="92" y="36" width="12" height="16" fill="#0b1020"/><rect x="152" y="36" width="12" height="16" fill="#0b1020"/>
      <rect x="108" y="64" width="40" height="8" fill="#0b1020"/>
    </g>
  </g>
  <g transform="translate(910 52)" font-family="ui-monospace, SFMono-Regular, Consolas, monospace">
    <g>
      <rect width="226" height="66" rx="10" fill="#151f38" stroke="#334155" stroke-width="3"/>
      <rect x="14" y="14" width="38" height="38" rx="6" fill="#ff7a8a"/><text x="20" y="39" fill="#0b1020" font-size="13" font-weight="800">0924</text>
      <text x="66" y="29" fill="#fff7ed" font-size="15" font-weight="700">BEEP GET</text><text x="66" y="49" fill="#94a3b8" font-size="11">PIXEL PAGER</text>
    </g>
    <g transform="translate(0 78)">
      <rect width="226" height="66" rx="10" fill="#151f38" stroke="#334155" stroke-width="3"/>
      <rect x="14" y="14" width="38" height="38" rx="6" fill="#67e8f9"/><rect x="22" y="22" width="10" height="10" fill="#0b1020"/><rect x="34" y="22" width="10" height="10" fill="#ff7a8a"/><rect x="22" y="34" width="10" height="10" fill="#facc15"/><rect x="34" y="34" width="10" height="10" fill="#4ade80"/>
      <text x="66" y="29" fill="#fff7ed" font-size="15" font-weight="700">DESIGNLENS</text><text x="66" y="49" fill="#94a3b8" font-size="11">DESIGN SIGNALS</text>
    </g>
    <g transform="translate(0 156)">
      <rect width="226" height="66" rx="10" fill="#151f38" stroke="#334155" stroke-width="3"/>
      <rect x="14" y="14" width="38" height="38" rx="19" fill="#facc15"/><path d="M23 27h20v13H32l-7 6 2-6h-4z" fill="#0b1020"/>
      <text x="66" y="29" fill="#fff7ed" font-size="15" font-weight="700">LINK AI</text><text x="66" y="49" fill="#94a3b8" font-size="11">CHAT → INSIGHT</text>
    </g>
  </g>
  <g font-family="ui-monospace, SFMono-Regular, Consolas, monospace" font-size="12" font-weight="700">
    <rect x="54" y="254" width="214" height="32" rx="16" fill="#ff7a8a"/><text x="76" y="275" fill="#0b1020">IDEA → PROTOTYPE</text>
    <rect x="280" y="254" width="198" height="32" rx="16" fill="#67e8f9"/><text x="302" y="275" fill="#0b1020">SHIP → OBSERVE</text>
  </g>
  <text x="54" y="330" fill="#94a3b8" font-family="ui-monospace, SFMono-Regular, Consolas, monospace" font-size="13">SMALL SCOPE. USEFUL RELEASE. REAL-WORLD EVIDENCE.</text>
</svg>
